<?xml version="1.0" standalone="no"?>
<!DOCTYPE svg PUBLIC "-//W3C//DTD SVG 20010904//EN"
 "http://www.w3.org/TR/2001/REC-SVG-20010904/DTD/svg10.dtd">
<svg version="1.0" xmlns="http://www.w3.org/2000/svg"
 width="300.000000pt" height="300.000000pt" viewBox="0 0 250.000000 250.000000"
 preserveAspectRatio="xMidYMid meet">
<g transform="translate(0.000000,210.000000) scale(0.100000,-0.100000)"
fill="#000000" stroke="none" opacity="0.5">
<path d="M1271 2064 c-69 -108 -191 -418 -191 -485 0 -10 -14 -31 -31 -46 -50
-45 -97 -133 -138 -263 -22 -67 -49 -137 -60 -156 -23 -39 -17 -47 29 -34 19
5 36 8 38 5 6 -6 -11 -65 -42 -148 -20 -52 -26 -86 -26 -146 0 -78 0 -79 -27
-85 -16 -4 -37 -9 -48 -12 -16 -4 -17 -3 -5 5 22 15 15 14 -116 -20 -132 -35
-151 -44 -132 -66 31 -37 214 -110 321 -128 20 -3 37 -7 37 -9 0 -2 -12 -30
-27 -62 -23 -49 -28 -73 -28 -139 0 -73 3 -83 29 -117 l28 -38 789 0 c433 0
790 4 793 9 3 4 3 11 0 14 -3 3 -7 30 -7 59 -2 62 -29 113 -54 104 -10 -4 -21
2 -30 14 -18 26 -31 25 -60 -2 -22 -21 -23 -21 -43 -3 -19 17 -21 17 -56 -14
-34 -30 -37 -31 -49 -14 -13 17 -16 16 -49 -16 -31 -30 -36 -32 -36 -15 0 16
-48 161 -75 226 -4 11 0 18 14 23 30 9 26 32 -6 40 -60 15 -126 89 -154 172
-18 57 13 104 83 127 10 3 29 22 43 43 129 191 145 226 144 318 0 74 -16 134
-44 165 -17 19 -16 19 47 13 52 -4 81 -1 137 16 39 12 71 27 71 34 0 7 -26 24
-58 39 -42 20 -88 57 -174 142 -64 64 -121 116 -127 116 -7 0 -11 28 -11 74 0
83 -22 201 -45 246 -31 60 -64 32 -140 -121 -63 -125 -117 -183 -87 -93 21 64
8 73 -60 42 -29 -14 -69 -31 -88 -38 -19 -7 -51 -25 -71 -41 l-36 -27 -11 87
c-7 48 -19 111 -28 140 -16 56 -60 111 -88 111 -9 0 -29 -20 -45 -46z m86 -21
c11 -21 28 -71 37 -111 23 -100 37 -355 27 -477 -4 -55 -4 -104 0 -109 5 -6
18 -1 32 12 35 33 99 30 164 -8 49 -28 103 -89 103 -117 0 -7 6 -13 14 -13 8
0 18 -9 21 -21 11 -33 87 -61 164 -61 85 1 111 -15 111 -66 0 -52 -25 -122
-58 -162 l-28 -33 -105 -3 c-57 -2 -120 1 -139 6 -19 6 -66 37 -105 70 -77 66
-108 74 -113 28 -2 -15 4 -41 13 -58 9 -18 15 -34 12 -36 -6 -7 -78 -6 -123 1
-29 5 -51 2 -73 -9 -30 -16 -31 -16 -31 7 0 13 -6 31 -13 41 -10 14 -17 15
-40 7 -16 -6 -30 -11 -32 -11 -8 0 16 55 32 72 21 23 11 34 -47 49 -28 7 -50
16 -50 20 0 11 73 69 87 69 25 0 24 23 -3 52 l-29 31 25 -6 c84 -18 90 -18 90
-5 0 9 -22 18 -62 25 -86 17 -97 7 -52 -46 l26 -31 -24 1 c-12 0 -43 4 -68 9
-38 6 -41 9 -22 15 30 10 28 20 -14 57 -19 17 -42 44 -50 59 l-15 29 47 0 c40
0 45 2 38 18 -4 9 -9 49 -12 89 -8 131 45 316 150 528 72 145 80 150 115 88z
m566 -64 c9 -35 20 -101 23 -146 l7 -82 -59 24 c-34 14 -80 25 -107 25 l-48 0
19 28 c11 15 36 61 57 102 72 143 81 147 108 49z m-249 -141 c-11 -37 -17 -45
-61 -77 -61 -44 -53 -57 11 -20 71 39 142 47 222 24 85 -24 115 -45 249 -175
74 -71 137 -124 164 -136 l44 -19 -39 -12 c-48 -14 -167 -16 -212 -4 -17 5
-32 8 -32 6 0 -2 15 -26 34 -54 63 -93 70 -195 22 -296 l-24 -50 -1 48 c-1 48
-25 87 -54 87 -7 0 -17 15 -22 32 -8 27 -24 41 -87 76 -80 44 -120 86 -132
136 -5 21 -10 26 -18 18 -8 -8 -7 -23 5 -54 20 -51 20 -58 6 -95 l-11 -28 -12
30 c-15 35 -53 68 -143 126 -35 23 -63 47 -63 54 0 33 -21 22 -45 -25 -14 -27
-26 -50 -28 -50 -1 0 -2 82 -1 182 l0 182 35 27 c28 23 163 85 192 88 5 1 5
-9 1 -21z m-607 -413 l1 -85 -33 0 c-19 0 -37 -5 -40 -10 -9 -14 48 -101 77
-119 l22 -14 -22 -8 c-41 -15 -26 -37 36 -50 l57 -12 -32 -32 c-46 -46 -43
-61 12 -69 24 -4 47 -10 49 -15 3 -4 -2 -28 -11 -55 -18 -54 -9 -75 25 -57 32
17 40 14 47 -20 9 -38 25 -45 64 -25 33 18 81 22 65 6 -5 -5 -63 -20 -129 -34
-66 -14 -151 -35 -190 -46 -38 -11 -74 -20 -79 -20 -5 0 11 20 37 45 36 34 47
52 47 75 0 18 -4 29 -10 25 -5 -3 -10 -13 -10 -20 0 -8 -22 -40 -50 -70 -53
-58 -66 -89 -56 -130 9 -35 -7 -31 -44 12 -32 36 -33 38 -26 110 3 45 17 103
36 151 16 42 30 91 30 108 0 22 7 34 25 44 26 14 33 30 14 30 -6 0 -20 -5 -31
-11 -11 -6 -33 -15 -48 -19 l-28 -8 18 31 c10 18 30 74 44 125 27 95 72 190
109 230 11 12 21 22 21 22 1 0 2 -38 3 -85z m781 -170 c15 0 16 -7 8 -45 -4
-24 -11 -30 -33 -30 l-27 0 24 22 c17 16 20 23 10 26 -8 3 -16 0 -18 -6 -6
-18 -29 -14 -36 4 -4 9 -3 33 0 52 l7 36 26 -30 c14 -16 32 -29 39 -29z m103
-67 c7 -28 7 -28 -42 -28 -48 0 -48 0 -37 25 19 42 68 44 79 3z m-383 -247
c26 -22 30 -30 18 -34 -23 -9 -76 22 -76 44 0 26 19 23 58 -10z m104 -87 c-1
-9 -141 -59 -146 -53 -2 2 -6 16 -9 30 -6 25 -3 28 46 46 49 19 53 19 80 3 16
-10 29 -21 29 -26z m-172 -48 c0 -12 -6 -39 -14 -61 -11 -32 -25 -47 -72 -76
-67 -41 -164 -81 -250 -104 -68 -18 -254 -21 -349 -5 -73 12 -235 60 -235 70
0 4 38 16 85 26 51 11 79 22 72 26 -7 5 0 6 14 3 15 -4 44 -2 64 4 35 10 40 8
78 -24 25 -21 51 -35 68 -35 l27 0 -16 44 c-9 25 -14 48 -10 51 3 4 89 27 190
51 100 24 215 52 253 62 63 17 71 17 83 3 6 -8 12 -24 12 -35z m280 34 c0 18
29 11 40 -10 12 -22 8 -25 -40 -33 -15 -3 -8 -5 18 -6 46 -1 64 17 42 44 -10
12 -10 15 2 15 23 0 22 -57 -1 -70 -28 -15 -77 -12 -112 6 -25 12 -28 18 -18
30 15 19 27 18 32 -3 2 -10 3 -6 1 10 -3 25 -2 26 16 17 14 -7 20 -7 20 0z
m-62 -66 c35 -13 73 -24 85 -24 18 0 19 -2 7 -10 -23 -15 -52 -12 -96 9 -21
10 -56 24 -76 32 -25 9 -34 16 -25 21 6 4 19 5 27 1 8 -3 43 -16 78 -29z m-77
-11 c5 -5 1 -35 -7 -67 -14 -55 -13 -106 1 -58 17 54 49 8 43 -63 -5 -64 -30
-99 -62 -89 -12 4 -26 7 -33 7 -6 0 -19 20 -28 43 -14 37 -22 44 -51 50 -43 8
-43 17 1 44 38 23 44 40 20 60 -18 15 -20 61 -2 79 13 14 103 9 118 -6z m71
-33 c36 -22 69 -25 97 -11 15 9 21 2 40 -44 22 -53 106 -145 133 -145 8 -1 5
-6 -6 -15 -29 -22 -102 -19 -126 5 -26 26 -33 25 -26 -4 4 -16 -5 -46 -25 -89
-17 -36 -33 -91 -36 -121 -3 -31 -9 -56 -14 -56 -4 0 -19 24 -32 53 -34 71
-42 151 -23 218 22 72 20 98 -8 140 -16 24 -22 44 -19 62 6 32 4 32 45 7z
m-207 -50 c21 -34 -126 -103 -347 -164 -72 -20 -255 -21 -366 -1 -81 14 -241
79 -257 104 -4 8 8 6 32 -4 157 -68 272 -89 450 -83 111 4 141 9 225 38 54 18
130 52 170 76 80 47 84 49 93 34z m-4 -118 c22 -9 30 -23 44 -76 10 -37 16
-68 14 -71 -3 -2 -37 14 -76 35 -63 35 -71 43 -81 79 -7 29 -6 42 2 45 14 7
64 0 97 -12z m-118 -48 c2 -31 50 -71 131 -110 69 -32 83 -58 45 -82 -20 -13
-25 -10 -68 37 -48 53 -88 74 -158 86 -44 7 -93 38 -93 58 0 14 121 56 133 46
5 -4 10 -19 10 -35z m-147 -43 c18 -21 40 -33 79 -42 l55 -12 -7 -41 c-3 -23
-11 -43 -16 -45 -5 -2 -40 -33 -76 -69 -37 -36 -53 -57 -37 -47 29 17 29 17
23 -6 -4 -13 -7 -32 -7 -41 0 -16 -14 -18 -146 -18 l-146 0 5 27 c26 152 53
261 67 276 10 11 42 22 85 28 38 5 71 12 74 14 10 11 23 4 47 -24z m698 -46
c10 -15 21 -64 27 -118 6 -50 15 -99 20 -109 8 -16 6 -17 -22 -11 -29 5 -31 4
-24 -16 5 -16 2 -21 -13 -21 -17 0 -20 10 -26 72 -4 39 -18 115 -32 167 -13
53 -24 97 -24 98 0 12 80 -41 94 -62z m-924 49 c0 -1 -7 -15 -15 -30 -8 -16
-15 -40 -15 -54 0 -14 -9 -62 -20 -108 -11 -46 -20 -94 -20 -108 0 -20 -5 -24
-28 -24 -24 0 -32 7 -47 39 -28 64 -21 146 21 237 l24 50 50 0 c27 -1 50 -2
50 -2z m623 -12 c22 -3 27 -9 27 -33 0 -29 -7 -33 -45 -29 -26 2 -31 9 -39 49
-5 29 -4 32 12 26 9 -4 29 -10 45 -13z m385 -101 c23 -66 42 -123 42 -127 0
-4 -8 -25 -17 -46 -13 -28 -23 -38 -40 -38 -13 0 -23 5 -23 10 0 6 7 10 16 10
11 0 14 5 9 18 -4 9 -13 61 -20 115 -8 59 -21 110 -33 131 -21 36 -20 46 8 46
12 0 28 -32 58 -119z m-144 -123 l13 -88 -26 0 c-25 0 -27 4 -29 46 -1 26 -9
75 -17 109 -15 58 -15 66 1 101 l16 39 15 -60 c7 -33 20 -99 27 -147z m-421
134 c18 -20 18 -20 -3 -27 -12 -4 -23 -18 -27 -36 l-5 -29 -19 24 c-21 27 -24
58 -9 87 12 22 32 16 63 -19z m229 -49 c19 -53 70 -109 87 -99 6 4 11 26 12
49 0 54 13 25 26 -60 l9 -60 -59 -2 -59 -2 6 26 c7 29 -15 107 -39 139 -14 18
-16 19 -34 2 -21 -19 -19 -22 -37 45 -4 13 3 15 32 14 35 -2 38 -6 56 -52z
m-168 -24 c15 -17 26 -43 26 -59 0 -52 19 -42 22 11 2 29 8 54 14 56 15 5 34
-42 34 -87 0 -65 -5 -70 -71 -70 l-59 0 -25 57 c-25 55 -25 82 -3 111 16 20
34 14 62 -19z m-94 -87 c12 -50 4 -68 -29 -57 -13 4 -25 21 -32 46 -7 21 -16
39 -21 39 -11 0 -10 -33 2 -64 9 -25 8 -26 -24 -26 l-33 0 8 43 c11 60 28 93
53 105 17 9 25 6 43 -16 12 -14 27 -46 33 -70z m962 27 c6 -21 8 -49 4 -63 -6
-25 -10 -26 -74 -26 -62 0 -71 3 -94 28 -44 47 -44 65 2 95 l40 26 14 -22 c8
-12 21 -35 30 -52 l17 -30 -5 40 c-4 28 -1 44 11 58 17 18 18 18 30 0 8 -10
19 -34 25 -54z m-706 -6 c8 -45 -2 -83 -24 -83 -15 0 -17 10 -16 68 1 37 2 72
3 77 3 18 31 -28 37 -62z m754 7 c12 -43 5 -90 -14 -90 -7 0 -11 24 -12 65 -2
73 10 85 26 25z m-253 -61 l6 -29 -67 0 c-66 0 -67 0 -55 23 6 12 28 39 48 60
l36 38 13 -32 c7 -17 16 -44 19 -60z"/>
<path d="M1296 1938 c-8 -13 -17 -41 -21 -63 -4 -22 -15 -82 -26 -132 -23
-111 -24 -179 -4 -253 23 -87 20 -124 -16 -165 -22 -24 -29 -39 -22 -46 10
-10 20 0 82 83 14 18 21 29 15 25 -8 -8 -16 21 -45 161 -10 54 -9 62 47 355 3
15 10 27 15 27 11 0 17 -29 23 -120 2 -41 9 -137 16 -212 11 -142 6 -178 -25
-178 -21 0 -19 -13 4 -27 18 -11 21 -7 37 43 16 51 16 71 5 227 -6 95 -14 190
-17 212 -5 42 -28 85 -44 85 -5 0 -16 -10 -24 -22z"/>
<path d="M1453 1290 c-29 -17 -61 -30 -73 -30 -11 0 -20 -4 -20 -10 0 -5 9
-10 20 -10 12 0 20 -7 20 -16 0 -9 15 -31 34 -50 39 -39 86 -45 139 -18 21 12
32 13 35 5 4 -13 32 -15 32 -2 0 6 -4 12 -9 16 -5 3 -17 29 -25 58 -27 93 -65
107 -153 57z m114 -21 c6 -13 15 -36 18 -51 6 -23 2 -29 -24 -42 -16 -9 -45
-16 -63 -16 l-33 0 33 20 c32 20 43 40 21 40 -7 0 -17 -7 -24 -16 -14 -20 -51
-11 -65 16 -9 17 -4 23 29 46 46 30 70 25 47 -11 -14 -22 -14 -22 9 -11 19 8
23 16 18 35 -8 31 17 24 34 -10z"/>
<path d="M1873 1097 c-57 -21 -61 -33 -26 -68 41 -42 78 -42 115 0 38 42 37
67 -3 75 -40 8 -47 7 -86 -7z m90 -28 c-11 -11 -132 -26 -121 -15 3 4 21 10
40 13 18 3 35 7 37 9 2 2 16 4 30 4 17 0 22 -3 14 -11z"/>
</g>
</svg>
