<?xml version="1.0" encoding="UTF-8"?>
<svg id="Layer_2" data-name="Layer 2" xmlns="http://www.w3.org/2000/svg" viewBox="0 0 1054.84 442.53">
  <defs>
    <style>
      .cls-1 {
        fill: #3f3f40;
      }

      .cls-2 {
        fill: none;
        stroke: #181a1b;
        stroke-miterlimit: 10;
        stroke-width: 40px;
      }

      .cls-3 {
        fill: #fff;
      }

      .cls-4 {
        fill: #e01f26;
      }

      .cls-5 {
        fill: #181a1b;
      }
    </style>
  </defs>
  <g>
    <path class="cls-1" d="M140.8,94.63l661.37-45.94s-7.9,61.11-7.9,121.93,7.9,122.74,7.9,122.74l-316.38-19.18-15.7-.95-16.1-.97-313.19-18.93V94.63Z"/>
    <path class="cls-3" d="M154.2,114.34c3.3-6,11.76-11.23,20.49-12.6,28.06-4.29,68.03-6.2,98.37-7.58,4.28-.16,8.53-.29,12.73.15,35.24,3.16,33.71,59.33,6.94,68.15-6.61,2.02-13.65,1.34-20.71.93-18.02-1.07-35.77-2.73-53.38.06-4.14.64-10.52,2.14-12.44,4.18-2.54,2.48,1.31,4.84,4.54,5.63,6.86,1.85,14.49.83,21.57.29,15.67-1.24,33.09-.59,48.88.82,4.68.44,9.51.97,13.81,2.56,12.13,4.33,13.72,16.21,14.57,25.98.58,13.05-.09,26.87-3.29,38.75-1.21,3.52-3.77,6.74-7.55,8.55-2.35,1.16-5.05,1.79-7.79,2.05-33.87.69-80.52-4.05-114.21-6.1-5.62-.45-11.43-1.42-15.48-4.78-10.02-8.51-6.73-29,4.54-36.66,3.45-2.22,7.87-3.17,12.25-3.96,5.99-1.3,14.69-1.47,21.66-.6,4.49.37,13.68,1.13,12.86-3.59-1.85-4.39-9.99-5.53-15.56-5.87-8.31-.61-15.52,1.17-23.35.42-7.09-.77-13.09-4.39-16.79-8.91-3.16-3.8-4.15-8.16-4.48-12.56-1.24-15.86.11-41.12.7-50.97.12-1.55.28-2.76,1.1-4.31"/>
    <path class="cls-3" d="M458.09,82.58c15.47-.52,15.73,75.65-3.96,78.42-12.24,1.6-22.98-5.7-35.3-3.81-4.63.64-8.45,3.08-10.39,7.31-3.72,8.76-4.3,21.46.67,29.82,8.74,12.2,29.39.26,42.4,2.51,19.6,1.89,20.39,51.46,12.06,60.05-1.66,2.08-4.28,3.37-6.66,3.58-27.17.78-88.62-1.7-125.16-5.23-3.75-.42-7.57-.98-10.06-3.65-8.35-8.76-4.21-39.78,2.18-51.58,4.42-8.71,15.21-6.13,24.29-4.73,7.98,1.2,13.25,4.42,20.49.92,9.44-5.28,8.32-29.6.38-35.99-7.6-5.62-14.19-3.61-23.57-1.95-3.77.72-8.12,1.87-11.05,2.27-2.93.5-5.79.01-7.67-2.14-11.09-13.29-9.44-53.45,1.54-64.83,2.39-2.4,5.32-3.28,8.67-3.71,31.09-2.66,87.06-6.6,121.1-7.25h.04Z"/>
    <path class="cls-3" d="M540.55,97.95c-.01-8.28-.24-14.37-9.12-17.64-10.48-3.51-22.36-1.33-33.68-.6-9.07.58-23.4,4.4-23.28,14.33.65,20.12-3.17,132.97,2.26,164.76,1.05,6.2,22.19,5.7,30.3,5.4,5.63-.21,5.32-8.44,5.53-13.16.65-14.61-1.22-28.75.6-45.61,1.06-9.78,15.6-8.05,16.43,1.19,1.86,20.77-3.46,31.23-.33,51.38.91,5.84,5.51,8.58,20.52,9.39,19.7,1.06,20.28-4.42,20.61-9.45,1.07-16.23-4.72-56.34,5.8-56.05,18.78.52,1.39,60.41,15.35,66.76,5.14,2.36,18.02,2.3,26.33,2.62,5.4.2,7.89-3.84,8.04-11.6.89-45.92-1.9-149.27-3.18-175.92-.8-16.49-48.86-10.88-57.72-5.13-5.5,3.54-7.32,10.87-7.42,17.97-.15,9.78.48,36.18-.56,48.62-.98,11.64-12.81,11.2-14.2.75-1.41-10.56-2.26-35.4-2.28-47.99Z"/>
    <path class="cls-3" d="M632.75,89.14c3.3-8.29,11.76-15.37,20.49-17.07,28.06-5.26,68.03-6.93,98.37-8.12,4.28-.12,8.53-.19,12.73.49,35.24,5.02,33.71,80.7,6.94,92.46-6.61,2.71-13.65,1.76-20.71,1.17-18.02-1.54-35.77-3.91-53.38-.17-4.14.86-10.52,2.89-12.44,5.7-2.54,3.41,1.31,6.67,4.54,7.77,6.86,2.55,14.49,1.17,21.57.44,15.67-1.67,33.09-.73,48.88,1.2,4.68.6,9.51,1.33,13.81,3.49,12.13,5.86,13.72,21.9,14.57,35.1.58,17.61-.09,36.28-3.29,52.37-1.21,4.77-3.77,9.17-7.55,11.69-2.35,1.61-5.05,2.52-7.79,2.92-33.87,1.57-80.52-4.01-114.21-6.17-5.62-.51-11.43-1.74-15.48-6.34-10.02-11.68-6.73-40.3,4.54-51.05,3.45-3.11,7.87-4.45,12.25-5.58,5.99-1.84,14.69-2.12,21.66-.96,4.49.48,13.68,1.47,12.86-5.01-1.85-6.03-9.99-7.58-15.56-8.04-8.31-.82-15.52,1.67-23.35.65-7.09-1.05-13.09-6.06-16.79-12.35-3.16-5.3-4.15-11.38-4.48-17.51-1.24-22.13.11-57.33.7-71.06.12-2.16.28-3.84,1.1-5.99"/>
  </g>
  <path class="cls-4" d="M1054.84,170.54c0,92.23-62.43,166.99-139.45,166.99-35.85,0-67.18-17.89-93.25-42.83-9.55-9.13-15.34-74.38-15.34-123.67s6.52-113.22,13.28-122.39c22.46-30.49,58.45-45.1,95.31-45.1,77.02,0,139.45,74.77,139.45,166.99Z"/>
  <path class="cls-5" d="M913.34,0c-1.76,0-3.1,1.58-2.81,3.32,6.75,40.56,13.9,104.9,14.04,170.76.14,67.76-6.19,122.51-13.04,163.66-.29,1.74,1.05,3.3,2.81,3.32,5.04.03,15.2.15,21.67-1.45,1.13-.28,2.01-1.16,2.2-2.3,6.95-41.35,13.11-95.11,12.93-163.92-.17-66.07-8.01-129.93-14.81-170.5-.23-1.37-1.42-2.37-2.81-2.37l-20.19-.52Z"/>
  <path class="cls-5" d="M133.72,108.32v125.02c-18.54,2.14-37.09-4.14-55.63-8.66v-107.34c18.66-5.26,37.2-9.5,55.63-9.02Z"/>
  <path class="cls-2" d="M74.59,171.03c-60.28,0-74.25,106.12-23.66,151.03,64.69,57.43,148.43,87.17,313.55,82.46,185.46-5.28,232.78-99.44,384.86-78.64,96.8,13.24,133.18,63.97,161.85,105.24"/>
</svg>